# xmcd CD database file
#
# Track frame offsets:
#	150
#	17290
#	33179
#	52282
#	71243
#	87379
#	106299
#	126174
#	144278
#	158087
#	171890
#	186318
#
# Disc length: 2683 seconds
#
# Revision: 1
# Processed by: cddbd v1.5.2PL0 Copyright (c) Steve Scherf et al.
# Submitted via: CDex 1.70beta2
#
DISCID=a10a790c
DTITLE=Dieter Falk - A Tribute To Paul Gerhardt
DYEAR=2006
DGENRE=Jazz
TTITLE0=Nun ruhen alle Wälder
TTITLE1=Kommt und lasst uns Christus ehren
TTITLE2=Du, meine Seele, singe
TTITLE3=Geh aus, mein Herz
TTITLE4=Fröhlich soll mein Herze springen
TTITLE5=Lobet den Herren alle, die ihn ehren
TTITLE6=Befiehl du deine Wege
TTITLE7=Die güldne Sonne
TTITLE8=Ich steh an deiner Krippen hier
TTITLE9=Wie soll ich dich empfangen 
TTITLE10=O Haupt voll Blut und Wunden
TTITLE11=Nun danket alle Gott (BONUSTRACK)
EXTD=www.gerth.de, Art.-Nr. 939339 YEAR: 2006
EXTT0=
EXTT1=
EXTT2=
EXTT3=
EXTT4=
EXTT5=
EXTT6=
EXTT7=
EXTT8=
EXTT9=
EXTT10=
EXTT11=
PLAYORDER=
